<?xml version="1.0" encoding="iso-8859-1"?>
<!-- Generator: Adobe Illustrator 18.0.0, SVG Export Plug-In . SVG Version: 6.00 Build 0)  -->
<!DOCTYPE svg PUBLIC "-//W3C//DTD SVG 1.1//EN" "http://www.w3.org/Graphics/SVG/1.1/DTD/svg11.dtd">
<svg width="36" height="36" fill="white" version="1.1" id="Capa_1" xmlns="http://www.w3.org/2000/svg" xmlns:xlink="http://www.w3.org/1999/xlink"
	 viewBox="0 0 500 400" style="enable-background:new 0 0 496.176 496.176;" xml:space="preserve">
<g id="XMLID_285_">
	<path id="XMLID_290_" d="M93.148,152.212l-29.712,35.651l-26.407,2.574c-3.65-2.118-7.836-3.421-12.349-3.421
		C9.954,187.016,0,199.925,0,210.629c0,2.633,0.277,60.285,0.277,80.85c0,5.132,13.831,42.299,15.688,47.642l-10.312,62.57
		c-1.483,8.993,4.594,17.497,13.602,18.978c9.27,1.458,17.529-4.813,18.961-13.61l4.171-25.217
		c1.271,5.523,5.083,10.327,10.899,12.144c8.715,2.728,17.967-2.134,20.672-10.817l17.023-54.336
		c1.924-6.125,0.115-12.813-4.643-17.138l-36.896-33.607v-55.698l23.945-2.329c4.316-0.416,8.293-2.517,11.078-5.857l34.063-40.856
		c5.832-7.006,4.871-17.415-2.117-23.247C109.357,144.262,98.98,145.214,93.148,152.212z M56.351,329.02l-11.095,35.383
		l3.958-24.062c0.457-2.712,0.212-5.506-0.685-8.104l-5.261-15.135L56.351,329.02z"/>
	<path id="XMLID_289_" d="M32.939,180.825c17.09,0,30.951-13.855,30.951-30.952c0-17.097-13.861-30.951-30.951-30.951
		c-17.089,0-30.95,13.853-30.95,30.951C1.989,166.97,15.851,180.825,32.939,180.825z"/>
	<path id="XMLID_288_" d="M479.674,316.396h-44.197l-4.853-31.229c0-1.995,0-3.592,0-5.018c0-5.18,0-6.866,0-6.736
		c0-8.756,0-27.571,0-65.358c0-13.602-11.225-24.76-24.763-24.76c-3.079,0-5.978,0.627-8.683,1.653l-25.967-5.36l-39.699-44.44
		c-6.094-6.793-16.535-7.372-23.313-1.303c-6.793,6.069-7.381,16.503-1.32,23.304l43.334,48.505
		c2.377,2.631,5.522,4.447,8.977,5.165l21.91,4.521V276.5c0,0.074,0.016,0.153,0.033,0.235l-25.56,39.44
		c-2.037,3.128-2.933,6.858-2.591,10.573l7.053,72.956c0.848,8.943,8.748,15.679,18.002,14.84
		c9.074-0.871,15.736-8.943,14.857-18.016l-6.484-67.231l14.254-21.985l4.365,28.134c1.256,8.032,8.178,13.971,16.307,13.971h58.338
		c9.121,0,16.502-7.396,16.502-16.512C496.176,323.79,488.795,316.396,479.674,316.396z"/>
	<path id="XMLID_287_" d="M397.619,177.104c17.088,0,30.95-13.856,30.95-30.953s-13.862-30.952-30.95-30.952
		c-17.09,0-30.953,13.855-30.953,30.952S380.529,177.104,397.619,177.104z"/>
	<path id="XMLID_286_" d="M234.355,75.296c-15.754,0-28.543,12.788-28.543,28.542c0,15.769,12.789,28.548,28.543,28.548
		c15.77,0,28.557-12.779,28.557-28.548C262.912,88.083,250.125,75.296,234.355,75.296z"/>
</g>
<g>
</g>
<g>
</g>
<g>
</g>
<g>
</g>
<g>
</g>
<g>
</g>
<g>
</g>
<g>
</g>
<g>
</g>
<g>
</g>
<g>
</g>
<g>
</g>
<g>
</g>
<g>
</g>
<g>
</g>
</svg>
